<svg xmlns="http://www.w3.org/2000/svg" width="64" height="64" viewBox="0 0 64 64"><path d="M58.5,5H4.5A4.505,4.505,0,0,0,0,9.5v34A4.505,4.505,0,0,0,4.5,48H24v2.5A6.508,6.508,0,0,1,17.5,57a1.5,1.5,0,0,0,0,3h28a1.5,1.5,0,0,0,0-3A6.508,6.508,0,0,1,39,50.5V48H58.5A4.505,4.505,0,0,0,63,43.5V9.5A4.505,4.505,0,0,0,58.5,5ZM38.578,57H24.422A9.466,9.466,0,0,0,27,50.5V48h9v2.5A9.466,9.466,0,0,0,38.578,57ZM60,43.5A1.5,1.5,0,0,1,58.5,45H4.5A1.5,1.5,0,0,1,3,43.5V9.5A1.5,1.5,0,0,1,4.5,8h54A1.5,1.5,0,0,1,60,9.5Z" fill="#000000"/><path d="M22.092,15.81l-.014,18.3a1,1,0,0,0,1.676.737l4.807-4.411,4.469,7.485a1,1,0,0,0,1.373.339l3.222-1.945a1,1,0,0,0,.339-1.372l-4.47-7.485,6.136-2.009a1,1,0,0,0,.161-1.832L23.564,14.929A1,1,0,0,0,22.092,15.81Z" fill="#62d84e"/></svg>
