<svg xmlns="http://www.w3.org/2000/svg" width="64" height="64" viewBox="0 0 64 64"><path d="M56.261,26.88a1.5,1.5,0,0,1-1.356-.856A26.629,26.629,0,0,0,44.8,14.7a1.5,1.5,0,1,1,1.568-2.558,29.625,29.625,0,0,1,11.25,12.594,1.5,1.5,0,0,1-1.353,2.145Zm-49.622-.1a1.5,1.5,0,0,1-1.357-2.136,28.861,28.861,0,0,1,7.19-9.532,30.121,30.121,0,0,1,4.161-3,1.5,1.5,0,0,1,1.534,2.579,27.092,27.092,0,0,0-3.732,2.691A25.862,25.862,0,0,0,8,25.916,1.5,1.5,0,0,1,6.639,26.78Z" fill="#62d84e"/><path d="M57.5,52H33V45H57.5a1.5,1.5,0,0,0,0-3A6.508,6.508,0,0,1,51,35.5,19.513,19.513,0,0,0,33,16.076v-.638A4.475,4.475,0,0,1,37.5,11h2a1.5,1.5,0,0,0,0-3h-16a1.5,1.5,0,0,0,0,3h2A4.475,4.475,0,0,1,30,15.438v.638A19.513,19.513,0,0,0,12,35.5,6.508,6.508,0,0,1,5.5,42a1.5,1.5,0,0,0,0,3H30v7H5.5a1.5,1.5,0,0,0,0,3h52a1.5,1.5,0,0,0,0-3ZM15,35.5a16.5,16.5,0,0,1,33,0A9.466,9.466,0,0,0,50.578,42H12.422A9.466,9.466,0,0,0,15,35.5Z" fill="#000000"/></svg>
