<svg xmlns="http://www.w3.org/2000/svg" width="64" height="64" viewBox="0 0 64 64"><path d="M37.5,2A23.484,23.484,0,0,0,17,36.967L3.372,50.593a6.388,6.388,0,1,0,9.034,9.035L26.033,46A23.5,23.5,0,1,0,37.5,2ZM10.285,57.507a3.468,3.468,0,0,1-4.792,0,3.387,3.387,0,0,1,0-4.792L18.667,39.541a23.706,23.706,0,0,0,4.792,4.792ZM37.5,46A20.5,20.5,0,1,1,58,25.5,20.523,20.523,0,0,1,37.5,46Z" fill="#000000"/><path d="M28.575,19.068l-5.361,4.965a2,2,0,0,0,0,2.934l5.361,4.965a13.133,13.133,0,0,0,17.85,0l5.361-4.965a2,2,0,0,0,0-2.934l-5.361-4.965A13.135,13.135,0,0,0,28.575,19.068ZM37.5,29.5a4.314,4.314,0,0,1-4.571-4,4.314,4.314,0,0,1,4.571-4,4.314,4.314,0,0,1,4.571,4A4.314,4.314,0,0,1,37.5,29.5Z" fill="#62d84e"/></svg>
